# xmcd CD database file
# Copyright (C) 1993-1998 Ti Kan
#
# Track frame offsets:
#  150
#  12272
#  26457
#  39532
#  55005
#  68390
#  84872
#  99757
#  116907
#  130177
#
# Disc length: 1972 seconds
#
# Revision: 1
# Processed by: cddbd v1.4b41PL1 Copyright (c) Steve Scherf et al.
# Submitted via: CDWizzard Release:4.61
#
DISCID=6c07b20a
DTITLE=Crystal Gayle - Three Good Reasons
DYEAR=1900
DGENRE=
TTITLE0=Why Cry
TTITLE1=A Rose Between Two Thorns
TTITLE2=The Trouble With Me (Is You)
TTITLE3=If The Phone Doesn't Ring (It's Me)
TTITLE4=One Less Step of Footsteps
TTITLE5=The Least That I Can Do
TTITLE6=Love To, Can't Do
TTITLE7=99% of the Time
TTITLE8=Living In Tears
TTITLE9=Three Good Reasons
EXTD=
EXTT0=
EXTT1=
EXTT2=
EXTT3=
EXTT4=
EXTT5=
EXTT6=
EXTT7=
EXTT8=
EXTT9=
PLAYORDER=
